PathFileType	4	(X/Y/Z)
DataRate	CameraRate	NumFrames	NumMarkers	Units	OrigDataRate	OrigDataStartFrame	OrigNumFrames	
  120.0	  120.0	    4	     56	     mm	  120.0	      69	    551
Frame#	Time	LASI			RASI			LPSI			RPSI			RTH1			RTH2			RTH3			RLFC			RMFC			LTH1			LTH2			LTH3			LLFC			LMFC			RTB1			RTB2			RTB3			RLMAL			RMMAL			LTB1			LTB2			LTB3			LMMAL			LLMAL			RCAL			RTOE			RMT5			LCAL			LTOE			LMT5			LACR			RACR			CLAV			C7			LASH			LPSH			RASH			RPSH			RUA1			RUA2			RUA3			RLEL			RMEL			LUA1			LUA2			LUA3			LLEL			LMEL			RFAsuperior			RFAradius			RFAulna			LFAsuperior			LFAradius			LFAulna			RHJC			LHJC			
		X1	Y1	Z1	X2	Y2	Z2	X3	Y3	Z3	X4	Y4	Z4	X5	Y5	Z5	X6	Y6	Z6	X7	Y7	Z7	X8	Y8	Z8	X9	Y9	Z9	X10	Y10	Z10	X11	Y11	Z11	X12	Y12	Z12	X13	Y13	Z13	X14	Y14	Z14	X15	Y15	Z15	X16	Y16	Z16	X17	Y17	Z17	X18	Y18	Z18	X19	Y19	Z19	X20	Y20	Z20	X21	Y21	Z21	X22	Y22	Z22	X23	Y23	Z23	X24	Y24	Z24	X25	Y25	Z25	X26	Y26	Z26	X27	Y27	Z27	X28	Y28	Z28	X29	Y29	Z29	X30	Y30	Z30	X31	Y31	Z31	X32	Y32	Z32	X33	Y33	Z33	X34	Y34	Z34	X35	Y35	Z35	X36	Y36	Z36	X37	Y37	Z37	X38	Y38	Z38	X39	Y39	Z39	X40	Y40	Z40	X41	Y41	Z41	X42	Y42	Z42	X43	Y43	Z43	X44	Y44	Z44	X45	Y45	Z45	X46	Y46	Z46	X47	Y47	Z47	X48	Y48	Z48	X49	Y49	Z49	X50	Y50	Z50	X51	Y51	Z51	X52	Y52	Z52	X53	Y53	Z53	X54	Y54	Z54	X55	Y55	Z55	X56	Y56	Z56	

69	0.57500	570.25619	1026.36452	-698.02336	699.56874	1024.94465	-483.44151	466.66605	1046.61790	-538.09526	512.62824	1046.71342	-464.68505	678.79418	849.59015	-409.66918	700.51802	724.07496	-446.32552	623.40162	612.92349	-374.33600	634.66923	530.94796	-375.55448	548.69936	500.75536	-454.22348	495.37109	883.06894	-715.15214	530.31309	766.18812	-731.20328	448.36573	638.21103	-683.19786	436.68552	531.56795	-683.69586	508.07842	520.32251	-584.37346	632.50146	400.07348	-429.94009	636.36155	343.88107	-357.06472	609.49945	223.49264	-409.59026	591.14524	132.83124	-333.54738	566.75539	124.46936	-416.55703	494.85562	394.60047	-659.49944	421.68648	299.51789	-689.95742	468.45010	207.62044	-641.34863	462.38159	121.47614	-606.71090	391.69726	125.75855	-654.91729	513.75038	101.11119	-330.27111	688.66349	74.82240	-460.08384	716.73552	62.51462	-366.30882	362.05384	98.15361	-586.78629	543.36234	80.06405	-707.47416	470.46427	60.64505	-764.57901	440.69016	1469.72979	-678.47782	632.22824	1468.18043	-357.18666	639.34006	1454.79382	-551.69709	513.49669	1530.46163	-504.82143	519.91242	1442.96346	-684.75606	407.94391	1440.73576	-619.72699	683.30648	1444.56472	-407.64636	578.35971	1434.09827	-346.99568	682.97415	1372.84749	-291.16107	731.34424	1321.84063	-303.79425	685.82815	1276.12615	-223.48190	768.50678	1235.45664	-198.70300	718.47796	1172.22043	-237.97626	394.48625	1400.02230	-725.31260	369.19750	1311.51615	-710.43845	380.49812	1319.78909	-787.44076	353.93753	1232.56771	-856.82987	377.30322	1165.06022	-805.23161	835.51004	1242.58110	-247.89469	940.70668	1210.49584	-376.44960	967.67825	1182.99376	-322.10411	411.14959	1249.77202	-893.12942	582.55834	1229.98943	-944.95885	551.12357	1206.25874	-994.31144	630.54102	953.33620	-483.91031	539.63985	976.64331	-636.92974	
70	0.58333	569.96857	1026.41884	-697.86897	699.38246	1024.95316	-483.41301	466.68169	1046.61019	-538.12884	512.59686	1046.71299	-464.71072	678.73973	849.58148	-409.77373	700.38109	724.11462	-446.31059	623.35800	612.90524	-374.41262	634.50710	530.72005	-375.90382	548.33405	500.80132	-454.10399	495.04460	883.11396	-715.00097	529.96320	766.20957	-731.00682	448.02989	638.24104	-683.04267	436.35415	531.63813	-683.60197	508.07874	520.34407	-584.45748	632.24529	400.10942	-429.87353	636.31852	343.84500	-357.22492	609.16804	223.49647	-409.39779	591.12911	132.91346	-333.50045	566.42773	124.53930	-416.47249	494.34407	394.39669	-658.80453	421.37524	299.56477	-689.78945	468.20792	207.64072	-641.23926	461.27796	121.87310	-606.72884	391.38138	125.81962	-654.80189	513.58930	101.15719	-330.30874	688.47490	74.89094	-460.10249	716.59465	62.50896	-366.41837	362.06728	98.16041	-586.82338	543.24961	80.06749	-707.46211	470.12259	60.70381	-764.44356	440.50416	1469.79338	-678.42151	632.18940	1468.18018	-357.22832	639.17910	1454.85125	-551.70663	513.35956	1530.50354	-504.80748	519.51345	1443.03481	-684.31765	407.71149	1440.82102	-619.69958	683.15702	1444.62152	-407.68948	578.32614	1434.11699	-346.99992	682.93610	1372.86391	-291.21960	731.22055	1321.88385	-303.83366	685.82019	1276.16751	-223.48851	768.48246	1235.47405	-198.72868	718.30620	1172.26917	-237.94042	394.23173	1400.11108	-725.21059	368.46828	1311.63142	-710.23256	380.16157	1319.86299	-787.27770	353.56515	1232.63479	-856.63625	377.00736	1165.14457	-805.06546	835.36040	1242.65086	-247.95427	940.51595	1210.56863	-376.42769	967.61433	1183.00075	-322.28106	410.78773	1249.83051	-892.91919	582.22725	1230.09495	-944.95482	550.73249	1206.32946	-994.06535	630.38354	953.34478	-483.87156	539.47012	976.67334	-636.88133	
71	0.59167	569.71595	1026.45634	-697.71694	699.23000	1024.96960	-483.36788	466.66530	1046.54790	-538.09366	512.56838	1046.64879	-464.66753	678.79170	849.60937	-409.51861	700.27906	724.11542	-446.14699	623.32347	612.86021	-374.36183	634.47633	530.64164	-375.84493	548.01366	500.84093	-453.98565	494.77384	883.14490	-714.86924	529.66562	766.22740	-730.83206	447.73001	638.26572	-682.90178	436.08273	531.69252	-683.56841	508.04018	520.31064	-584.43145	632.03231	400.14051	-429.80231	636.39249	343.92457	-356.97519	608.88016	223.48657	-409.21207	591.03075	132.95021	-333.42095	566.14478	124.59693	-416.39144	493.89362	394.21615	-658.17473	421.10292	299.60163	-689.64530	467.93656	207.55933	-640.94270	460.39417	122.20493	-606.70967	391.09472	125.86921	-654.70143	513.46795	101.15310	-330.27792	688.29093	74.86044	-460.02142	716.48360	62.46579	-366.42646	362.04715	98.12439	-586.80317	543.16946	80.05883	-707.56739	469.82723	60.75567	-764.33995	440.33378	1469.81026	-678.32004	632.15703	1468.12163	-357.18829	639.03782	1454.85925	-551.60704	513.27668	1530.47463	-504.72729	519.16267	1443.10391	-683.92093	407.51239	1440.83363	-619.61810	683.03307	1444.63314	-407.59305	578.29961	1434.07440	-346.94650	682.91819	1372.82354	-291.17941	731.13443	1321.88703	-303.73896	685.81704	1276.15990	-223.42894	768.47460	1235.44334	-198.68737	718.17179	1172.31253	-237.88709	393.99111	1400.15919	-725.07675	367.86012	1311.72101	-710.05095	379.86864	1319.91731	-787.12194	353.24652	1232.69089	-856.46760	376.70630	1165.21325	-804.89044	835.24963	1242.66376	-247.87612	940.34815	1210.57740	-376.30520	967.62972	1183.00288	-322.11691	410.47728	1249.88339	-892.73110	581.94319	1230.08642	-944.85746	550.37844	1206.39749	-993.81758	630.28512	953.33651	-483.82289	539.32570	976.67398	-636.80447	
72	0.60000	569.51342	1026.47545	-697.58089	699.11589	1024.99977	-483.31146	466.61199	1046.45744	-538.00006	512.54288	1046.54137	-464.56835	678.91552	849.66324	-409.02418	700.21568	724.08434	-445.90292	623.30469	612.81078	-374.21468	634.59029	530.76316	-375.39867	547.77417	500.86543	-453.87890	494.58399	883.16291	-714.77046	529.45266	766.24580	-730.70140	447.50286	638.28818	-682.78944	435.89991	531.72739	-683.58684	507.97676	520.24296	-584.30754	631.87687	400.17866	-429.74983	636.54616	344.08118	-356.44236	608.66949	223.46081	-409.04715	590.93785	132.96126	-333.30328	565.95810	124.63660	-416.32593	493.56126	394.08389	-657.69791	420.91220	299.62486	-689.54529	467.69819	207.42208	-640.55070	459.86306	122.42306	-606.57714	390.89918	125.90456	-654.63171	513.39410	101.11182	-330.20011	688.13372	74.75562	-459.87349	716.42052	62.40838	-366.33831	362.01090	98.06163	-586.75018	543.13242	80.04476	-707.71841	469.65919	60.79983	-764.28005	440.19356	1469.79613	-678.19016	632.13846	1468.04363	-357.07256	638.92370	1454.83311	-551.43338	513.24171	1530.40583	-504.59715	518.88866	1443.16656	-683.60477	407.35909	1440.79502	-619.49668	682.94413	1444.61647	-407.39611	578.28550	1433.99581	-346.85209	682.92625	1372.75551	-291.04614	731.08438	1321.86126	-303.55329	685.82196	1276.11603	-223.31454	768.48711	1235.39246	-198.58678	718.08127	1172.35142	-237.81500	393.79292	1400.17376	-724.93543	367.43829	1311.77366	-709.91477	379.64120	1319.95161	-786.98341	353.00853	1232.74173	-856.33623	376.44742	1165.25988	-804.71679	835.18344	1242.64436	-247.69342	940.22902	1210.53650	-376.12441	967.70170	1183.00705	-321.70388	410.24303	1249.93490	-892.58448	581.73509	1230.00340	-944.70030	550.09369	1206.45754	-993.59753	630.24132	953.32341	-483.76587	539.21098	976.65202	-636.70674	
